
<svg width="26px" height="39px" viewBox="0 0 26 39" version="1.1" xmlns="http://www.w3.org/2000/svg" xmlns:xlink="http://www.w3.org/1999/xlink">
    <!-- Generator: Sketch 51.2 (57519) - http://www.bohemiancoding.com/sketch -->
    <desc>Created with Sketch.</desc>
    <defs></defs>
    <g id="Page-1" stroke="none" stroke-width="1" fill="none" fill-rule="evenodd">
        <g id="clients" transform="translate(-27.000000, -10.000000)" fill="#55EDA5">
            <g id="header" transform="translate(-1.000000, 0.000000)">
                <g id="logo" transform="translate(28.000000, 10.000000)">
                    <path d="M13.1396686,39.0996226 L21.2640683,25.0606011 C23.2459624,22.0578735 22.5698898,19.5048293 19.2358503,17.4014683 C14.2347911,14.246427 4.43920931,10.7971891 1.38164499,5.97458921 C-0.229695035,9.54013152 0.126360428,12.1852069 2.44981138,13.9098154 C5.9349878,16.496728 16.371934,22.5371059 15.4386761,24.381273 L4.31635258,17.6455967 C8.03758287,23.1287189 10.9058043,27.5691871 12.9210169,30.9670013 C13.8950448,32.6092925 13.9679287,35.3201663 13.1396686,39.0996226 Z" id="Path-10"></path>
                    <path d="M5.77661965,0.439645308 C8.92202339,4.3617431 13.6378568,7.35049816 19.9241198,9.4059105 C26.2103829,11.4613228 27.3047851,15.5061867 23.2073263,21.540502 C23.1839359,18.6809955 20.5604048,16.0094139 15.336733,13.5257572 C12.3323211,12.097274 7.03027683,9.4059105 5.77661965,6.87453748 C5.08788114,5.48384301 5.08788114,3.33887896 5.77661965,0.439645308 Z" id="Path-11"></path>
                </g>
            </g>
        </g>
    </g>
</svg>
